<svg width="311" height="311" viewBox="0 0 311 311" fill="none" xmlns="http://www.w3.org/2000/svg">
<path opacity="0.5" fill-rule="evenodd" clip-rule="evenodd" d="M156.156 296.312C233.562 296.312 296.312 233.562 296.312 156.156C296.312 78.7501 233.562 16 156.156 16C78.7501 16 16 78.7501 16 156.156C16 233.562 78.7501 296.312 156.156 296.312ZM220.533 129.184L182.606 91.5625L129.184 91.7791L91.5625 129.707L91.7791 183.128L129.707 220.75L183.128 220.533L220.75 182.606L220.533 129.184Z" fill="#F27A5E"/>
<circle cx="156.156" cy="156.156" r="140.156" stroke="white" stroke-width="2"/>
<circle cx="156.156" cy="156.156" r="30.4688" stroke="white" stroke-width="2"/>
<circle cx="156.156" cy="156.156" r="14.625" stroke="white" stroke-width="2"/>
<rect x="135.438" y="135.438" width="41.4375" height="41.4375" rx="9" stroke="white" stroke-width="2"/>
<path d="M182.606 91.5625L220.533 129.184L220.75 182.606L183.128 220.533L129.707 220.75L91.7791 183.128L91.5625 129.707L129.184 91.7791L182.606 91.5625Z" stroke="white" stroke-width="2"/>
</svg>
