<svg width="311" height="311" viewBox="0 0 311 311" fill="none" xmlns="http://www.w3.org/2000/svg">
<path opacity="0.5" fill-rule="evenodd" clip-rule="evenodd" d="M278.222 87.231L247.4 102.234L247.086 102.72L248.002 103.14C257.024 118.736 262.188 136.843 262.188 156.156C262.188 186.062 249.807 213.076 229.891 232.352H82.4219C62.506 213.076 50.125 186.062 50.125 156.156C50.125 124.653 63.8642 96.358 85.6775 76.9374L94.6094 85.4686L153.719 59.8749L155 60.4628V16.0046C78.1262 16.6258 16 79.1358 16 156.156C16 233.562 78.7501 296.312 156.156 296.312C233.562 296.312 296.312 233.562 296.312 156.156C296.312 131.102 289.739 107.583 278.222 87.231Z" fill="#F27A5E"/>
<path d="M246.953 102.531L278.641 87.2969" stroke="white" stroke-width="2"/>
<path d="M155 61L155 16" stroke="white" stroke-width="2"/>
<path d="M229.891 231.719L255.484 255.484" stroke="white" stroke-width="2"/>
<circle cx="156.156" cy="156.156" r="140.156" stroke="white" stroke-width="2"/>
<path d="M203.687 151.281C203.687 142.962 202.298 134.967 199.739 127.516L219.847 115.328C225.853 125.945 229.281 138.213 229.281 151.281C229.281 166.401 224.692 180.45 216.831 192.109L197.603 180.531C201.516 171.574 203.687 161.681 203.687 151.281Z" stroke="white" stroke-width="2"/>
<circle cx="156.156" cy="156.156" r="30.4688" stroke="white" stroke-width="2"/>
<path d="M262.188 156.156C262.188 186.062 249.807 213.076 229.891 232.353H82.4219C62.506 213.076 50.125 186.062 50.125 156.156C50.125 124.653 63.8642 96.3581 85.6775 76.9375L94.6094 85.4688L155 60L248.002 103.141C257.024 118.736 262.188 136.843 262.188 156.156Z" stroke="white" stroke-width="2"/>
<path d="M83.0312 231.109L57.4375 256.094" stroke="white" stroke-width="2"/>
<rect x="135.438" y="135.438" width="41.4375" height="41.4375" rx="9" stroke="white" stroke-width="2"/>
<rect x="56.4467" y="162.062" width="19.5" height="20.7188" rx="3" transform="rotate(-5.76254 56.4467 162.062)" stroke="white" stroke-width="2"/>
<rect x="81.4048" y="90.4875" width="19.5" height="20.7187" rx="3" transform="rotate(33.9283 81.4048 90.4875)" stroke="white" stroke-width="2"/>
<rect width="19.5" height="20.7188" rx="3" transform="matrix(-0.829737 0.558155 0.558155 0.829737 86.0204 191.5)" stroke="white" stroke-width="2"/>
<rect width="19.5" height="20.7188" rx="3" transform="matrix(-0.994947 -0.100406 -0.100406 0.994947 77.9283 126.427)" stroke="white" stroke-width="2"/>
<path d="M247.562 131.781H247.656C250.97 131.781 253.656 134.468 253.656 137.781V170.875C253.656 174.189 250.97 176.875 247.656 176.875H247.562V131.781Z" stroke="white" stroke-width="2"/>
</svg>
