<svg width="311" height="311" viewBox="0 0 311 311" fill="none" xmlns="http://www.w3.org/2000/svg">
<path opacity="0.5" fill-rule="evenodd" clip-rule="evenodd" d="M156.156 296.312C233.562 296.312 296.312 233.562 296.312 156.156C296.312 78.7501 233.562 16 156.156 16C78.7501 16 16 78.7501 16 156.156C16 233.562 78.7501 296.312 156.156 296.312ZM78.1639 189.375L77.2764 190.263L139.325 252.312L173.848 217.789L178.8 222.741C177.175 222.535 175.475 223.056 174.228 224.304L155.268 243.263C153.767 244.764 153.318 246.918 153.921 248.81C152.029 248.207 149.875 248.656 148.374 250.157L137.885 260.646C138.052 259.057 137.527 257.408 136.309 256.19L117.35 237.231C115.208 235.089 111.735 235.089 109.594 237.231L103.561 243.263C101.419 245.405 101.419 248.877 103.561 251.019L122.52 269.978C124.021 271.479 126.175 271.928 128.067 271.326C127.465 273.218 127.914 275.372 129.414 276.873L135.447 282.905C137.589 285.047 141.061 285.047 143.203 282.905L162.162 263.946C163.663 262.445 164.112 260.291 163.51 258.399C165.402 259.001 167.556 258.552 169.057 257.052L188.016 238.092C189.264 236.844 189.785 235.145 189.579 233.52L190.436 234.377L252.485 172.328L217.875 137.719L222.944 132.65C222.666 134.336 223.177 136.126 224.477 137.426L243.436 156.385C244.937 157.886 247.091 158.335 248.983 157.733C248.381 159.625 248.83 161.779 250.331 163.28L260.819 173.768C259.229 173.601 257.581 174.126 256.363 175.344L237.404 194.303C235.262 196.445 235.262 199.918 237.404 202.059L243.436 208.092C245.578 210.234 249.051 210.234 251.192 208.092L270.152 189.133C271.652 187.632 272.101 185.478 271.499 183.587C273.391 184.189 275.545 183.74 277.046 182.239L283.078 176.207C285.22 174.065 285.22 170.592 283.078 168.451L264.119 149.491C262.618 147.99 260.464 147.541 258.572 148.144C259.175 146.252 258.726 144.098 257.225 142.597L238.265 123.637C236.965 122.337 235.175 121.827 233.49 122.105L234.377 121.217L172.328 59.1684L137.806 93.6911L132.853 88.7389C134.478 88.9452 136.178 88.4244 137.426 87.1765L156.385 68.2172C157.886 66.7164 158.335 64.5623 157.733 62.6704C159.625 63.2729 161.779 62.8238 163.28 61.323L173.769 50.8342C173.601 52.4236 174.126 54.0722 175.345 55.2903L194.304 74.2496C196.446 76.3913 199.918 76.3913 202.06 74.2496L208.092 68.2171C210.234 66.0753 210.234 62.6028 208.092 60.461L189.133 41.5017C187.633 40.001 185.479 39.5518 183.587 40.1541C184.189 38.2623 183.74 36.1083 182.239 34.6076L176.207 28.5751C174.065 26.4333 170.592 26.4333 168.451 28.5751L149.491 47.5344C147.991 49.0351 147.541 51.1893 148.144 53.0812C146.252 52.4786 144.098 52.9278 142.597 54.4286L123.637 73.3879C122.39 74.6358 121.869 76.3355 122.075 77.9605L121.217 77.103L59.1687 139.152L93.7781 173.761L88.7096 178.83C88.9877 177.144 88.4768 175.354 87.1768 174.054L68.2175 155.095C66.7166 153.594 64.5623 153.145 62.6704 153.747C63.273 151.855 62.8238 149.701 61.323 148.2L50.8348 137.712C52.4241 137.879 54.0725 137.354 55.2906 136.136L74.2499 117.177C76.3916 115.035 76.3916 111.563 74.2499 109.421L68.2174 103.388C66.0756 101.246 62.6031 101.246 60.4613 103.388L41.502 122.348C40.0014 123.848 39.5522 126.002 40.1542 127.893C38.2624 127.291 36.1083 127.74 34.6076 129.241L28.5751 135.273C26.4333 137.415 26.4333 140.888 28.5751 143.03L47.5344 161.989C49.0352 163.49 51.1896 163.939 53.0815 163.336C52.4789 165.228 52.928 167.382 54.4289 168.883L73.3882 187.843C74.6882 189.143 76.4785 189.654 78.1639 189.375Z" fill="#F27A5E"/>
<path d="M185.406 228.672L231.109 274.375" stroke="white" stroke-width="2"/>
<path d="M81.8125 37.9375L122.031 78.7656" stroke="white" stroke-width="2"/>
<circle cx="156.156" cy="156.156" r="140.156" stroke="white" stroke-width="2"/>
<circle cx="156.156" cy="156.156" r="30.4688" stroke="white" stroke-width="2"/>
<rect x="135.438" y="135.438" width="41.4375" height="41.4375" rx="9" stroke="white" stroke-width="2"/>
<rect x="199.235" y="155.88" width="86.5313" height="48.75" transform="rotate(-135 199.235 155.88)" stroke="white" stroke-width="2"/>
<rect x="159.593" y="64.5303" width="18.2812" height="36.5625" rx="4" transform="rotate(-135 159.593 64.5303)" stroke="white" stroke-width="2"/>
<rect x="211.299" y="64.5303" width="18.2812" height="36.5625" rx="4" transform="rotate(135 211.299 64.5303)" stroke="white" stroke-width="2"/>
<rect x="133.739" y="90.3838" width="18.2813" height="36.5625" rx="4" transform="rotate(-135 133.739 90.3838)" stroke="white" stroke-width="2"/>
<rect x="150.975" y="107.62" width="18.2812" height="48.75" transform="rotate(-135 150.975 107.62)" stroke="white" stroke-width="2"/>
<path d="M197.511 143.815L222.503 118.823" stroke="white" stroke-width="2"/>
<rect x="112.801" y="155.983" width="86.5312" height="48.75" transform="rotate(45 112.801 155.983)" stroke="white" stroke-width="2"/>
<rect x="152.443" y="247.333" width="18.2812" height="36.5625" rx="4" transform="rotate(45 152.443 247.333)" stroke="white" stroke-width="2"/>
<rect x="100.736" y="247.333" width="18.2812" height="36.5625" rx="4" transform="rotate(-45 100.736 247.333)" stroke="white" stroke-width="2"/>
<rect x="178.297" y="221.479" width="18.2813" height="36.5625" rx="4" transform="rotate(45 178.297 221.479)" stroke="white" stroke-width="2"/>
<rect x="161.061" y="204.243" width="18.2813" height="48.75" transform="rotate(45 161.061 204.243)" stroke="white" stroke-width="2"/>
<path d="M114.525 168.048L89.5328 193.04" stroke="white" stroke-width="2"/>
<rect x="156.156" y="199.235" width="86.5312" height="48.75" transform="rotate(-45 156.156 199.235)" stroke="white" stroke-width="2"/>
<rect x="247.505" y="159.593" width="18.2812" height="36.5625" rx="4" transform="rotate(-45 247.505 159.593)" stroke="white" stroke-width="2"/>
<rect width="18.2812" height="36.5625" rx="4" transform="matrix(-0.707106 -0.707107 0.707106 -0.707107 247.505 211.299)" stroke="white" stroke-width="2"/>
<rect x="221.652" y="133.739" width="18.2812" height="36.5625" rx="4" transform="rotate(-45 221.652 133.739)" stroke="white" stroke-width="2"/>
<rect x="204.416" y="150.975" width="18.2812" height="48.75" transform="rotate(-45 204.416 150.975)" stroke="white" stroke-width="2"/>
<path d="M168.221 197.511L193.213 222.503" stroke="white" stroke-width="2"/>
<rect x="155.88" y="112.628" width="86.5312" height="48.75" transform="rotate(135 155.88 112.628)" stroke="white" stroke-width="2"/>
<rect x="64.5304" y="152.27" width="18.2813" height="36.5625" rx="4" transform="rotate(135 64.5304 152.27)" stroke="white" stroke-width="2"/>
<rect x="64.5304" y="100.563" width="18.2812" height="36.5625" rx="4" transform="rotate(45 64.5304 100.563)" stroke="white" stroke-width="2"/>
<rect x="90.3839" y="178.124" width="18.2812" height="36.5625" rx="4" transform="rotate(135 90.3839 178.124)" stroke="white" stroke-width="2"/>
<rect x="107.62" y="160.888" width="18.2812" height="48.75" transform="rotate(135 107.62 160.888)" stroke="white" stroke-width="2"/>
<path d="M143.815 114.352L118.823 89.36" stroke="white" stroke-width="2"/>
<path d="M231.109 124.469L273.766 81.8125" stroke="white" stroke-width="2"/>
<path d="M37.9375 230.5L80.5938 187.844" stroke="white" stroke-width="2"/>
</svg>
