<svg width="200" height="200" viewBox="0 0 200 200" fill="none" xmlns="http://www.w3.org/2000/svg">
<path d="M101.428 15.0001L97.2061 4.80554V15.0001H94.8988V1.90918H98.5806L102.77 11.8583V1.90918H105.093V15.0001H101.428Z" fill="white"/>
<path d="M99.9388 197.131C98.9897 197.131 98.0679 196.984 97.1733 196.689C96.2788 196.394 95.4879 195.947 94.8006 195.347L95.6024 193.449C96.2788 193.994 96.9933 194.404 97.7461 194.676C98.5097 194.938 99.3388 195.069 100.233 195.069C100.975 195.069 101.537 194.922 101.919 194.627C102.301 194.322 102.492 193.896 102.492 193.351C102.492 192.849 102.268 192.478 101.821 192.238C101.373 191.998 100.468 191.742 99.1042 191.469C97.6751 191.174 96.6388 190.754 95.9951 190.209C95.3624 189.653 95.0461 188.845 95.0461 187.787C95.0461 186.62 95.4606 185.66 96.2897 184.907C97.1188 184.154 98.3079 183.778 99.857 183.778C100.773 183.778 101.652 183.931 102.492 184.236C103.332 184.531 104.019 184.934 104.553 185.447L103.866 187.264C103.233 186.805 102.579 186.462 101.902 186.233C101.226 185.993 100.544 185.873 99.857 185.873C99.2024 185.873 98.6842 186.004 98.3024 186.265C97.9206 186.516 97.7297 186.909 97.7297 187.444C97.7297 187.945 97.9479 188.311 98.3842 188.54C98.8315 188.769 99.7697 189.036 101.199 189.342C102.628 189.658 103.648 190.1 104.259 190.667C104.881 191.224 105.192 192.025 105.192 193.073C105.192 194.327 104.728 195.32 103.801 196.051C102.884 196.771 101.597 197.131 99.9388 197.131Z" fill="white"/>
<path d="M189.722 106V92.9092H198.477V94.9874H192.406V97.9492H197.724V100.027H192.406V103.922H198.477V106H189.722Z" fill="white"/>
<path d="M9.85091 106L8.05091 98.0801L6.20182 106H3.28909L0.883636 92.9092H3.45273L5.13818 102.875L6.77455 95.1183H9.42545L11.1927 102.891L12.8618 92.9092H15.1691L12.7636 106H9.85091Z" fill="white"/>
<path fill-rule="evenodd" clip-rule="evenodd" d="M100 176C141.974 176 176 141.974 176 100C176 58.0264 141.974 24 100 24C58.0264 24 24 58.0264 24 100C24 141.974 58.0264 176 100 176ZM100 178C143.078 178 178 143.078 178 100C178 56.9218 143.078 22 100 22C56.9218 22 22 56.9218 22 100C22 143.078 56.9218 178 100 178Z" fill="white"/>
</svg>
