<svg width="638" height="638" viewBox="0 0 638 638" fill="none" xmlns="http://www.w3.org/2000/svg">
<path d="M1 1H637" stroke="#3E4951"/>
<path d="M1 32.8H637" stroke="#141D3F"/>
<path d="M1 64.6001H637" stroke="#141D3F"/>
<path d="M1 96.3999H637" stroke="#141D3F"/>
<path d="M1 128.2H637" stroke="#141D3F"/>
<path d="M1 160H637" stroke="#3E4951"/>
<path d="M1 191.8H637" stroke="#141D3F"/>
<path d="M1 223.6H637" stroke="#141D3F"/>
<path d="M1 255.4H637" stroke="#141D3F"/>
<path d="M1 287.2H637" stroke="#141D3F"/>
<path d="M1 319H637" stroke="#3E4951"/>
<path d="M1 350.8H637" stroke="#141D3F"/>
<path d="M1 382.6H637" stroke="#141D3F"/>
<path d="M1 414.4H637" stroke="#141D3F"/>
<path d="M1 446.2H637" stroke="#141D3F"/>
<path d="M1 478H637" stroke="#3E4951"/>
<path d="M1 509.8H637" stroke="#141D3F"/>
<path d="M1 541.6H637" stroke="#141D3F"/>
<path d="M1 573.4H637" stroke="#141D3F"/>
<path d="M1 605.2H637" stroke="#141D3F"/>
<path d="M1 637H637" stroke="#3E4951"/>
<path d="M1 637L1 1.00001" stroke="#3E4951"/>
<path d="M32.8 637L32.8 1.00001" stroke="#141D3F"/>
<path d="M64.6 637L64.6 1.00001" stroke="#141D3F"/>
<path d="M96.4 637L96.4 1.00001" stroke="#141D3F"/>
<path d="M128.2 637L128.2 1.00001" stroke="#141D3F"/>
<path d="M160 637L160 1.00001" stroke="#3E4951"/>
<path d="M191.8 637L191.8 1.00001" stroke="#141D3F"/>
<path d="M223.6 637L223.6 1.00001" stroke="#141D3F"/>
<path d="M255.4 637L255.4 1.00001" stroke="#141D3F"/>
<path d="M287.2 637L287.2 1.00001" stroke="#141D3F"/>
<path d="M319 637L319 1.00001" stroke="#3E4951"/>
<path d="M350.8 637L350.8 1.00001" stroke="#141D3F"/>
<path d="M382.6 637L382.6 1.00001" stroke="#141D3F"/>
<path d="M414.4 637L414.4 1.00001" stroke="#141D3F"/>
<path d="M446.2 637L446.2 1.00001" stroke="#141D3F"/>
<path d="M478 637L478 1.00001" stroke="#3E4951"/>
<path d="M509.8 637L509.8 1.00001" stroke="#141D3F"/>
<path d="M541.6 637V1.00001" stroke="#141D3F"/>
<path d="M573.4 637V1.00001" stroke="#141D3F"/>
<path d="M605.2 637V1.00001" stroke="#141D3F"/>
<path d="M637 637V1.00001" stroke="#3E4951"/>
</svg>
