<svg width="140" height="56" viewBox="0 0 140 56" fill="none" xmlns="http://www.w3.org/2000/svg">
<path d="M8 26.7611V0H13.4388L23.2287 11.5593L32.981 0H38.4574V26.7611H33.4687V7.13628L23.2287 19.2159L12.9512 7.17345V26.7611H8Z" fill="#F27A5E"/>
<path d="M42.8735 26.7611V5.16637C42.8735 3.75398 43.3861 2.53982 44.4113 1.52389C45.4366 0.507964 46.6619 0 48.0872 0H64.6287C66.0791 0 67.3169 0.507964 68.3421 1.52389C69.3674 2.53982 69.88 3.75398 69.88 5.16637V26.7611H64.8913V17.7664H47.8247V26.7611H42.8735ZM47.8247 12.8602H64.8913V6.24425C64.8913 5.55044 64.8413 5.16637 64.7413 5.09204C64.6412 4.99292 64.2536 4.94336 63.5785 4.94336H49.1375C48.4373 4.94336 48.0372 4.99292 47.9372 5.09204C47.8622 5.16637 47.8247 5.55044 47.8247 6.24425V12.8602Z" fill="#F27A5E"/>
<path d="M74.1162 26.7611V0.0371675H95.8714C97.3218 0.0371675 98.5596 0.557521 99.5848 1.59823C100.61 2.61416 101.123 3.81593 101.123 5.20354V12.4142C101.123 13.8265 100.61 15.0407 99.5848 16.0566C98.5596 17.0726 97.3218 17.5805 95.8714 17.5805H94.4086L102.473 26.7611H95.6839L87.9195 17.5805L79.0674 17.6177V26.7611H74.1162ZM80.3802 12.6372H94.8212C95.4964 12.6372 95.8714 12.6 95.9465 12.5257C96.0465 12.4513 96.0965 12.0673 96.0965 11.3735V6.24425C96.0965 5.55044 96.0465 5.16637 95.9465 5.09204C95.8714 4.99292 95.4964 4.94336 94.8212 4.94336H80.3802C79.68 4.94336 79.2799 4.99292 79.1799 5.09204C79.1049 5.16637 79.0674 5.55044 79.0674 6.24425V11.3735C79.0674 12.0673 79.1049 12.4513 79.1799 12.5257C79.2799 12.6 79.68 12.6372 80.3802 12.6372Z" fill="#F27A5E"/>
<path d="M110.207 26.7611C108.782 26.7611 107.557 26.2531 106.531 25.2372C105.506 24.2212 104.993 23.0071 104.993 21.5947V19.5504H109.945V20.5168C109.945 21.2106 109.982 21.6071 110.057 21.7062C110.157 21.7805 110.557 21.8177 111.257 21.8177H125.698C126.399 21.8177 126.786 21.7805 126.861 21.7062C126.961 21.6071 127.011 21.2106 127.011 20.5168V17.1345C127.011 16.4407 126.961 16.0566 126.861 15.9823C126.786 15.8832 126.399 15.8336 125.698 15.8336H110.207C108.782 15.8336 107.557 15.3257 106.531 14.3097C105.506 13.2938 104.993 12.0796 104.993 10.6673V5.16637C104.993 3.75398 105.506 2.53982 106.531 1.52389C107.557 0.507964 108.782 0 110.207 0H126.786C128.212 0 129.437 0.507964 130.462 1.52389C131.487 2.53982 132 3.75398 132 5.16637V7.21062H127.011V6.24425C127.011 5.55044 126.961 5.16637 126.861 5.09204C126.786 4.99292 126.399 4.94336 125.698 4.94336H111.257C110.557 4.94336 110.157 4.99292 110.057 5.09204C109.982 5.16637 109.945 5.55044 109.945 6.24425V9.62655C109.945 10.3204 109.982 10.7044 110.057 10.7788C110.157 10.8531 110.557 10.8903 111.257 10.8903H126.786C128.212 10.8903 129.437 11.4106 130.462 12.4513C131.487 13.4673 132 14.6814 132 16.0938V21.5947C132 23.0071 131.487 24.2212 130.462 25.2372C129.437 26.2531 128.212 26.7611 126.786 26.7611H110.207Z" fill="#F27A5E"/>
<g filter="url(#filter0_d)">
<path d="M11.0186 48C10.2041 48 9.50395 47.7098 8.91809 47.1292C8.33223 46.5487 8.03931 45.8549 8.03931 45.0478V35.6602C8.03931 34.8531 8.33223 34.1593 8.91809 33.5788C9.50395 32.9983 10.2041 32.708 11.0186 32.708H20.7495V35.5328H11.6187C11.2186 35.5328 10.99 35.5611 10.9329 35.6177C10.89 35.6602 10.8686 35.8797 10.8686 36.2761V44.4319C10.8686 44.8284 10.89 45.0549 10.9329 45.1115C10.99 45.154 11.2186 45.1753 11.6187 45.1753H20.7495V48H11.0186Z" fill="white"/>
<path d="M27.5137 48C26.6992 48 25.9991 47.7098 25.4132 47.1292C24.8274 46.5487 24.5344 45.8549 24.5344 45.0478V35.6602C24.5344 34.8531 24.8274 34.1593 25.4132 33.5788C25.9991 32.9983 26.6992 32.708 27.5137 32.708H36.9874C37.8019 32.708 38.5021 32.9983 39.0879 33.5788C39.6738 34.1593 39.9667 34.8531 39.9667 35.6602V45.0478C39.9667 45.8549 39.6738 46.5487 39.0879 47.1292C38.5021 47.7098 37.8019 48 36.9874 48H27.5137ZM28.1139 45.1753H36.3659C36.7517 45.1753 36.9731 45.154 37.0303 45.1115C37.0875 45.0549 37.116 44.8284 37.116 44.4319V36.2761C37.116 35.8797 37.0875 35.6602 37.0303 35.6177C36.9731 35.5611 36.7517 35.5328 36.3659 35.5328H28.1139C27.7138 35.5328 27.4851 35.5611 27.428 35.6177C27.3851 35.6602 27.3637 35.8797 27.3637 36.2761V44.4319C27.3637 44.8284 27.3851 45.0549 27.428 45.1115C27.4851 45.154 27.7138 45.1753 28.1139 45.1753Z" fill="white"/>
<path d="M43.4348 48V32.6868H46.2641V45.1753H53.5087V48H43.4348Z" fill="white"/>
<path d="M59.0342 48C58.2197 48 57.5196 47.7098 56.9337 47.1292C56.3479 46.5487 56.0549 45.8549 56.0549 45.0478V35.6602C56.0549 34.8531 56.3479 34.1593 56.9337 33.5788C57.5196 32.9983 58.2197 32.708 59.0342 32.708H68.5079C69.3224 32.708 70.0226 32.9983 70.6085 33.5788C71.1943 34.1593 71.4872 34.8531 71.4872 35.6602V45.0478C71.4872 45.8549 71.1943 46.5487 70.6085 47.1292C70.0226 47.7098 69.3224 48 68.5079 48H59.0342ZM59.6344 45.1753H67.8864C68.2722 45.1753 68.4937 45.154 68.5508 45.1115C68.608 45.0549 68.6365 44.8284 68.6365 44.4319V36.2761C68.6365 35.8797 68.608 35.6602 68.5508 35.6177C68.4937 35.5611 68.2722 35.5328 67.8864 35.5328H59.6344C59.2343 35.5328 59.0056 35.5611 58.9485 35.6177C58.9056 35.6602 58.8842 35.8797 58.8842 36.2761V44.4319C58.8842 44.8284 58.9056 45.0549 58.9485 45.1115C59.0056 45.154 59.2343 45.1753 59.6344 45.1753Z" fill="white"/>
<path d="M74.6514 48V32.708H77.7593L87.233 43.8797V32.708H90.0837V48H86.9758L77.4807 36.8071V48H74.6514Z" fill="white"/>
<path d="M94.2747 48V32.708H97.0825V48H94.2747Z" fill="white"/>
<path d="M103.735 48C102.92 48 102.22 47.7098 101.634 47.1292C101.048 46.5487 100.756 45.8549 100.756 45.0478V43.8797H103.585V44.4319C103.585 44.8284 103.606 45.0549 103.649 45.1115C103.706 45.154 103.935 45.1753 104.335 45.1753H112.587C112.987 45.1753 113.209 45.154 113.251 45.1115C113.309 45.0549 113.337 44.8284 113.337 44.4319V42.4992C113.337 42.1027 113.309 41.8832 113.251 41.8408C113.209 41.7841 112.987 41.7558 112.587 41.7558H103.735C102.92 41.7558 102.22 41.4655 101.634 40.885C101.048 40.3045 100.756 39.6107 100.756 38.8036V35.6602C100.756 34.8531 101.048 34.1593 101.634 33.5788C102.22 32.9983 102.92 32.708 103.735 32.708H113.209C114.023 32.708 114.723 32.9983 115.309 33.5788C115.895 34.1593 116.188 34.8531 116.188 35.6602V36.8284H113.337V36.2761C113.337 35.8797 113.309 35.6602 113.251 35.6177C113.209 35.5611 112.987 35.5328 112.587 35.5328H104.335C103.935 35.5328 103.706 35.5611 103.649 35.6177C103.606 35.6602 103.585 35.8797 103.585 36.2761V38.2089C103.585 38.6054 103.606 38.8248 103.649 38.8673C103.706 38.9098 103.935 38.931 104.335 38.931H113.209C114.023 38.931 114.723 39.2284 115.309 39.8231C115.895 40.4036 116.188 41.0974 116.188 41.9045V45.0478C116.188 45.8549 115.895 46.5487 115.309 47.1292C114.723 47.7098 114.023 48 113.209 48H103.735Z" fill="white"/>
<path d="M123.522 48V35.5328H118.828V32.708H131.045V35.5328H126.373V48H123.522Z" fill="white"/>
</g>
<defs>
<filter id="filter0_d" x="0.0393066" y="24.6868" width="139.006" height="31.3133" filterUnits="userSpaceOnUse" color-interpolation-filters="sRGB">
<feFlood flood-opacity="0" result="BackgroundImageFix"/>
<feColorMatrix in="SourceAlpha" type="matrix" values="0 0 0 0 0 0 0 0 0 0 0 0 0 0 0 0 0 0 127 0"/>
<feOffset/>
<feGaussianBlur stdDeviation="4"/>
<feColorMatrix type="matrix" values="0 0 0 0 0.94902 0 0 0 0 0.478431 0 0 0 0 0.368627 0 0 0 1 0"/>
<feBlend mode="normal" in2="BackgroundImageFix" result="effect1_dropShadow"/>
<feBlend mode="normal" in="SourceGraphic" in2="effect1_dropShadow" result="shape"/>
</filter>
</defs>
</svg>
