<svg width="24" height="24" viewBox="0 0 24 24" fill="none" xmlns="http://www.w3.org/2000/svg">
<path d="M6.78081 20.1246C7.40582 19.3434 8.59404 19.3434 9.21903 20.1247C10.6447 21.9068 13.3551 21.9068 14.7807 20.1247C15.4058 19.3435 16.5941 19.3435 17.2191 20.1247L17.3312 20.2648C18.7105 21.9891 21.2825 22.1316 22.8439 20.5702L23.707 19.7071L22.2927 18.2929L21.4296 19.156C20.7112 19.8745 19.5276 19.8089 18.8929 19.0155L18.7808 18.8754C17.3552 17.0932 14.6447 17.0933 13.219 18.8753C12.594 19.6566 11.4058 19.6566 10.7808 18.8753C9.35517 17.0932 6.64477 17.0932 5.2191 18.8752L5.10691 19.0155C4.47212 19.8089 3.28857 19.8745 2.57007 19.1559L1.70709 18.2929L0.292847 19.7071L1.15583 20.5701C2.7172 22.1315 5.28917 21.9891 6.66863 20.2649L6.78081 20.1246Z" fill="white"/>
<path d="M11 2V11.5858L8.70715 9.29289L7.29294 10.7071L12 15.4142L16.7071 10.7071L15.2929 9.29289L13 11.5858V2H11Z" fill="white"/>
</svg>
