<svg width="24" height="24" viewBox="0 0 24 24" fill="none" xmlns="http://www.w3.org/2000/svg">
<path fill-rule="evenodd" clip-rule="evenodd" d="M11.2462 24H12.7538C17.2367 24 20.6139 20.0973 20.1539 15.7904C20.7534 14.9478 21.2255 14.0083 21.5422 13H22C22.5523 13 23 12.5523 23 12V8C23 7.44772 22.5523 7 22 7H21.5422C20.2679 2.94289 16.4776 0 12 0C7.52236 0 3.73207 2.94289 2.4578 7H2C1.44772 7 1 7.44772 1 8V12C1 12.5523 1.44772 13 2 13H2.4578C2.7745 14.0083 3.24661 14.9478 3.84606 15.7904C3.3861 20.0973 6.76332 24 11.2462 24ZM5.11735 5.91968C6.51165 3.57284 9.07215 2 12 2C14.9279 2 17.4883 3.57284 18.8827 5.91968C18.4775 5.79402 18.0521 5.6812 17.6114 5.58132C15.9767 5.21074 14.0513 5 12 5C9.94869 5 8.02334 5.21074 6.38858 5.58132C5.94795 5.6812 5.52253 5.79401 5.11735 5.91968ZM4.14818 8.45954C4.05095 8.95802 4 9.47306 4 10C4 12.0034 4.73643 13.8349 5.95337 15.2383L5.97014 15.2425L5.96722 15.2543C7.43382 16.9368 9.59274 18 12 18C14.4073 18 16.5662 16.9368 18.0328 15.2543L18.0299 15.2425L18.0466 15.2383C19.2636 13.8349 20 12.0034 20 10C20 9.47306 19.9491 8.95802 19.8518 8.45954C19.2008 8.11212 18.2959 7.78722 17.1693 7.53183C15.6967 7.19802 13.9212 7 12 7C10.0788 7 8.30328 7.19802 6.83073 7.53183C5.70412 7.78722 4.79924 8.11212 4.14818 8.45954ZM11.2462 22C8.68722 22 6.62102 20.2606 5.99808 17.9993C7.66973 19.2555 9.74793 20 12 20C14.2521 20 16.3303 19.2555 18.0019 17.9993C17.379 20.2606 15.3128 22 12.7538 22H11.2462Z" fill="white"/>
</svg>
