<svg width="24" height="24" viewBox="0 0 24 24" fill="none" xmlns="http://www.w3.org/2000/svg">
<path d="M11 0V3H13V0H11Z" fill="white"/>
<path d="M24 11H21V13H24V11Z" fill="white"/>
<path d="M13 24V21H11V24H13Z" fill="white"/>
<path d="M0 13H3V11H0V13Z" fill="white"/>
<path fill-rule="evenodd" clip-rule="evenodd" d="M12 4.53125C7.87512 4.53125 4.53125 7.87512 4.53125 12C4.53125 16.1249 7.87512 19.4688 12 19.4688C16.1249 19.4688 19.4688 16.1249 19.4688 12C19.4688 7.87512 16.1249 4.53125 12 4.53125ZM6.53125 12C6.53125 8.97969 8.97969 6.53125 12 6.53125C15.0203 6.53125 17.4688 8.97969 17.4688 12C17.4688 15.0203 15.0203 17.4688 12 17.4688C8.97969 17.4688 6.53125 15.0203 6.53125 12Z" fill="white"/>
<path d="M2.80766 4.22183L4.92898 6.34315L6.3432 4.92893L4.22188 2.80761L2.80766 4.22183Z" fill="white"/>
<path d="M19.7782 21.1924L17.6569 19.0711L19.0711 17.6569L21.1924 19.7782L19.7782 21.1924Z" fill="white"/>
<path d="M4.22188 21.1924L6.3432 19.0711L4.92898 17.6569L2.80766 19.7782L4.22188 21.1924Z" fill="white"/>
<path d="M21.1924 4.22182L19.0711 6.34314L17.6569 4.92893L19.7782 2.80761L21.1924 4.22182Z" fill="white"/>
</svg>
